<?xml version="1.0" encoding="utf-8"?>
<!-- Generator: Adobe Illustrator 27.0.1, SVG Export Plug-In . SVG Version: 6.00 Build 0)  -->
<svg version="1.1" id="a" xmlns="http://www.w3.org/2000/svg" xmlns:xlink="http://www.w3.org/1999/xlink" x="0px" y="0px"
	 viewBox="0 0 240.9 240.9" style="enable-background:new 0 0 240.9 240.9;" xml:space="preserve">
<style type="text/css">
	.st0{fill:#FFFFFF;}
	.st1{fill:#1D1D1B;}
	.st2{fill:url(#SVGID_1_);}
	.st3{fill:#D5D0BC;}
	.st4{fill:#F18C21;}
	.st5{fill:#BFB899;}
	.st6{fill:url(#SVGID_00000048476536335715208330000017200915976685758885_);}
</style>
<g>
	<circle class="st0" cx="120.4" cy="120.4" r="117.6"/>
	<path class="st1" d="M90.7,144c-0.3,0-0.5,0-0.8,0c-2.9-0.2-5-1.2-7-2.2c-1.5-0.8-3.1-1.5-4.9-1.9c-2.8-0.6-6.3-0.3-10.4,1
		c-0.9,0.2-1.6,0.5-2.5,0.8c-2.5,0.8-5.1,1.5-7.9,1.9c-3.4,0.4-5.6-0.3-7.9-1c-0.7-0.2-1.4-0.5-2.3-0.7c-3.1-0.8-7.3-1.4-10.8-1.6
		c-3.7-0.2-7.3,1-10.9,2c-1,0.3-2.1,0.7-3.1,0.9c-0.6,0.2-1-0.2-1.2-0.8c-0.2-0.6,0.2-1,0.8-1.2c1-0.3,2-0.6,3.1-0.9
		c3.5-1,7.5-2.3,11.5-2.1c3.4,0.2,7.8,0.9,11.2,1.6c0.9,0.2,1.6,0.5,2.4,0.7c2.3,0.7,4.1,1.2,7.2,1c2.7-0.3,5.1-1,7.5-1.8
		c0.9-0.3,1.6-0.5,2.5-0.8c4.4-1.2,8.2-1.6,11.4-1c2.1,0.4,3.7,1.2,5.3,2c1.9,1,3.7,1.8,6.2,2c3.1,0.2,5.6-1,8.2-2.2
		c2.1-1,4.2-2,6.9-2.4c4.3-0.7,8.5,0.5,12.6,1.5c3.9,1,7.7,2,11.5,1.5c2.1-0.3,3.9-1,5.8-1.7c2.4-1,4.9-1.9,7.9-1.9l0,0
		c3.2,0,5.9,1,8.5,2.2c2.6,1,5,2,7.9,2c2.5-0.1,4.6-0.9,6.8-1.8c2.1-0.9,4.2-1.7,6.8-1.9c4.1-0.3,7.6,1,11,2.4
		c3.2,1.3,6.4,2.6,10,2.3c2.7-0.2,4.9-1.1,7-2.1c2.3-1,4.8-2,7.7-2.1c2.8-0.1,6,1.3,8.7,2.5c0.9,0.4,1.7,0.8,2.4,1
		c0.5,0.2,0.8,0.8,0.6,1.3c-0.2,0.5-0.8,0.8-1.3,0.6c-0.8-0.3-1.6-0.7-2.6-1c-2.5-1-5.5-2.5-7.8-2.4c-2.6,0.1-4.8,1-7.1,2
		c-2.2,1-4.6,2-7.6,2.3c-4.1,0.3-7.5-1-10.9-2.4c-3.3-1.3-6.4-2.6-10.1-2.3c-2.3,0.2-4.2,1-6.2,1.8c-2.2,1-4.6,1.9-7.4,1.9
		c-3.4,0.1-6.1-1-8.8-2.1c-2.5-1-4.9-2-7.7-2l0,0c-2.7,0-4.9,0.9-7.2,1.8c-1.9,0.8-3.9,1.5-6.3,1.8c-4.3,0.6-8.4-0.6-12.3-1.6
		c-4-1-7.8-2.1-11.7-1.4c-2.4,0.4-4.4,1.3-6.3,2.2C96.6,142.8,94,144,90.7,144L90.7,144z"/>
	
		<radialGradient id="SVGID_1_" cx="149.2074" cy="3385.3276" r="102.7504" gradientTransform="matrix(0.9999 1.239501e-02 -7.060198e-03 0.5696 0.3121 -1837.1855)" gradientUnits="userSpaceOnUse">
		<stop  offset="0" style="stop-color:#3E7497"/>
		<stop  offset="0.2782" style="stop-color:#6A9279"/>
		<stop  offset="0.6037" style="stop-color:#98B25B"/>
		<stop  offset="0.8551" style="stop-color:#B4C548"/>
		<stop  offset="1" style="stop-color:#BFCD42"/>
	</radialGradient>
	<path class="st2" d="M30.3,84.5c-1.3-3.1,0.3-8.1,4.2-7.3c2.7,0.6,3.5,3.3,5.2,5.1c2.3,2.4,5.6,4.1,8.8,5.1c3.2,1,6.6,1.5,10,2
		C51.1,91.9,34.5,94,30.3,84.5L30.3,84.5z M70,52.8c1.5,0.3,3.1,0.8,4.5,1.4c4,1.8,7.1,5,9.1,8.8c0.8,1.4,1.4,3.1,1.9,4.6
		c1.5,4.6,2.1,9.4,2.5,14.1c0.2,2.4,0.4,4.7,0.6,7.1c0,0.4,0.1,0.9,0.2,1.2c0.1,0.4,0.5,0.8,0.9,0.9c0.4,0.1,0.9-0.1,1-0.4
		c0.2-0.4-0.1-0.9-0.2-1.2s-0.1-0.9-0.2-1.2c-0.1-0.9-0.2-1.7-0.3-2.7c-0.2-1.8-0.4-3.5-0.5-5.3c-0.2-3.2-0.3-6.7-0.1-9.9
		c0.2-3,0.5-6,1.2-8.9c0.5-2.2,1-4.4,2.1-6.4c0.8-1.4,1.5-2.9,2.4-4.2c1.4-2.2,3.1-4.2,4.7-6.3c2.3-2.8,5-5.2,5.4-9
		c0.3-3,0-7.1-3.1-8c-3.1-0.9-5.9,2.3-7.9,4.2c-6,5.9-8,11.9-7.2,20.3c0.6,5.8,0.5,11.7,1.1,17.5c-1.6-7.3-4.9-18.6-7.4-22.1
		c-3.5-4.8-10.3-8.4-16.1-5.8c-3.2,1.4-5.8,3.6-3.1,6.6C64,50.8,66.4,52.1,70,52.8L70,52.8z M160.6,83.6c1-0.6,2-0.9,3-1.5
		c1.8-1.3,2.9-3.1,3-5.2c0.1-2.7-0.3-5.8-3.7-5.5c-3.9,0.3-7.1,4.7-8.3,7.7c-0.9,2.1-1.8,4.1-2.6,6.2c-0.7,1.5-1,3.3-1.1,5
		c-0.1,0.5,0.5,0.8,0.9,0.5c0.6-0.5,1.2-1,1.5-1.2c0.8-0.8,1.6-1.6,2.5-2.3c1.2-1,2.7-2,4.1-2.9C159.9,84,160.2,83.8,160.6,83.6
		L160.6,83.6z M205.2,85.9c-3.1-3.3-7.9-1.2-11.5-0.1c-3.7,1.1-8.2,0.5-11.8,1.9c-0.2,0.1-0.4-0.2-0.2-0.4
		c5.4-4.6,22.7-19.4,15.1-22.1c-3.6-1.3-6.9,2.5-8.3,5.1c-2.2,3.8-4.8,7.3-7.4,10.7c-1.3,1.7-5.8,6.9-5,9.4c1,2.7,7.8,0.9,10.1,0.8
		C188.5,91.1,210,91.1,205.2,85.9L205.2,85.9z M195.9,80.6c1-0.3,2-0.6,3-1c1.9-0.7,3.7-1.4,5.4-2.5c0.8-0.5,1.4-1,2.1-1.5
		c1.5-1.2,2.9-2.9,3.6-4.6c0.4-1,1.1-3.1-0.6-3.6c-1.1-0.3-2.6,0.9-3.3,1.4c-1,0.8-2,1.7-3,2.6c-1.7,1.6-3.1,3.4-4.6,5.2
		c-0.9,1-1.8,1.9-2.9,2.7c-0.5,0.4-1,0.9-1.6,1.1c-0.1,0.1-0.5,0.1-0.6,0.3c0,0.1-0.1,0.2,0,0.2C193.8,81.3,195.7,80.7,195.9,80.6
		L195.9,80.6z M141.9,75.1c-0.3,0.6-0.6,1.1-0.8,1.8c-0.2,0.8-0.3,1.4-0.4,2.2c-0.2,1.4-0.3,3-0.4,4.4c-0.1,1.3-0.2,2.8-0.1,4.1
		c0,0.6,0,1.2,0.1,1.8c0,0.3,0.1,0.5,0.1,0.8c-0.1-0.4,0,0.2,0,0.3c0.1,0.5,0-0.3,0,0.1c0,0.1,0,0.2,0,0.4c0.1,1.9,3.2,1.9,3.3,0
		c0-0.1,0-0.7,0-0.4c0-0.2,0.1-0.5,0.2-0.7c0.1-0.7,0.1-1.3,0.2-2c0.1-1.3,0.1-2.8,0.2-4.1c0.1-1.4,0.2-2.8,0.4-4.2
		c0.1-0.8,0.2-1.2,0.3-1.9c0.1-0.5,0.1-0.5,0.2-1c0-0.1,0-0.3,0-0.4l-0.1-0.4c0,0.2,0.1,0.1,0.1,0C145.1,74.3,142.4,73.8,141.9,75.1
		L141.9,75.1L141.9,75.1z M151.6,56.6c-1.9,4.9,2.5,11.1,5.1,15.5c0.3,0.4,0.9,0.3,1-0.2c0.4-1.8,1.2-4.8,1.1-5.6
		c-0.1-3.1-0.4-6.2-2.2-8.8C155.3,55.4,153,53.1,151.6,56.6z M48.1,60.9c5.2,0.4,9.7,3.7,13,7.5c3.7,4.4,6.5,9.5,8.4,14.9
		c1,2.8,1.8,5.5,2.4,8.4c0.3,1.8,3.5,1.1,3.1-0.8c-1-5.7-3.1-11.2-5.7-16.2c-2.8-5.4-6.6-10.5-11.8-13.7c-2.9-1.8-6-2.8-9.4-3
		c-0.8,0-1.6,0.6-1.6,1.4C46.5,60.5,47.4,60.9,48.1,60.9L48.1,60.9L48.1,60.9z M71.1,64.4c3.2,3.7,5.7,7.9,7.7,12.4
		c1,2.3,1.5,4.7,1.8,7.1c0.2,1.1,0.3,2.4,0.5,3.5c0.2,1.1,0.3,2.5,0.9,3.4c0.8,1.3,3.1,0.9,3.1-0.6c0-1-0.4-2.3-0.6-3.3
		c-0.2-1.2-0.3-2.5-0.5-3.8c-0.4-2.7-1-5.2-2-7.5c-2.1-4.8-4.8-9.1-8.3-12.9C72.7,61.4,69.9,62.9,71.1,64.4L71.1,64.4L71.1,64.4z
		 M168,91.6c6.5-12,13.5-24,17-37.3c1-3.8,1.8-7.7,2-11.6c0.1-2.1-3.4-2-3.6,0c-0.4,3.3-0.9,6.6-1.6,9.9c-0.8,3.1-1.8,6.3-3,9.4
		c-2.4,6.2-5.2,12.2-8.3,18.1c-1.7,3.3-3.5,6.8-5.2,10.1C164.3,91.8,167.1,93.1,168,91.6L168,91.6L168,91.6z M98.1,91.1
		c0.1-5.7,0.7-12.8,5.1-17c0.6-0.6,0.7-1.4,0-2s-1.6-0.5-2.3,0c-5.7,4.1-6.2,12.6-6.1,19C94.8,93,98.1,93,98.1,91.1L98.1,91.1
		L98.1,91.1z M106.3,91c0-0.3,0-0.6,0-0.9c0-0.2,0-0.3,0-0.5c0-0.1,0-0.2,0-0.2c0,0.1-0.1,0.3,0,0.1c0.1-0.7,0.3-1.3,0.6-2
		c0.1-0.3,0.2-0.7,0.4-1c0-0.1,0.1-0.2,0.1-0.2c0.1-0.2,0,0,0,0.1c0.1-0.1,0.2-0.3,0.2-0.5c0.2-0.3,0.3-0.6,0.5-0.9
		c0.1-0.2,0.2-0.5,0.4-0.7c-0.1,0.2-0.1,0.3-0.1,0.1v-0.1c0-0.1,0.1-0.2,0.1-0.2c0.4-0.7,0.2-1.4-0.5-1.9c-0.7-0.4-1.6-0.5-2.2,0.1
		c-1.1,1-1.9,2.6-2.4,4.1c-0.5,1.3-0.8,3-0.6,4.4c0.1,0.5,0.2,0.8,0.5,1s0.8,0.5,1.2,0.5C105.3,92.4,106.3,91.8,106.3,91L106.3,91
		L106.3,91z M111.8,91c0.5,3,4.9,2.3,4.4-0.7c-0.2-1-0.2-1.9,0-2.9c0.2-1.4-0.2-2.8-0.4-4.1c-0.2-1.2-0.5-2.4-0.7-3.6
		c-0.8-3.1-1.3-6-3-8.8c-0.9-1.6-1.6-3.3-2.9-4.9c-1-1.2-4-4.3-5.4-1.9c-0.4,0.8-0.1,1.7,0.7,2.1c1.6,0.8,2.7,2.6,3.6,4.7
		c0.3,0.6,0.9,1.9,1.1,2.5c1,2.2,1.4,4.9,1.9,7.2c0.3,1.8,0.9,4.8,0.8,6.3C111.6,88.1,111.6,89.7,111.8,91L111.8,91L111.8,91z
		 M50.3,69.1c-2.4,0.1-4.4,1.7-5.7,3.7c-1.5,2.3-2.1,4.7,0,6.9c2.6,2.9,6.7,3.7,9.4,0.6c1-1.2,1.8-2.8,2.1-4.4
		c0.8-3.5-1.2-6.4-4.9-6.8C50.9,69.1,50.6,69.1,50.3,69.1L50.3,69.1z M168.7,44.9c-0.2-0.7-0.6-1.3-1.3-1.5c-1-0.4-2.1,0.2-2.5,1.1
		c-0.7,2.1,0.3,4.3,1.3,6c0.4,0.6,0.8,1.1,1.1,1.7c0.2,0.3,0.7,0.2,0.8-0.1C168.8,49.8,169,47.3,168.7,44.9L168.7,44.9L168.7,44.9z
		 M162.3,47.4l-1.1-0.2c-1.3-0.3-2.4,1.2-1.7,2.5c0.8,1.2,1.5,1.6,2.5,2c1.6,0.9,3.4,1,5.2,1c0.4,0,0.6-0.4,0.4-0.7
		c-1-1.5-2.4-2.4-3.6-3.5C163.5,48,162.7,47.5,162.3,47.4L162.3,47.4L162.3,47.4z M167.9,51.3c-0.4,0.2-0.4,0.8,0,1
		c1.6,0.7,3.5,0.3,5.2-0.3c1.2-0.4,2.4-0.8,3.3-1.4l0.5-0.4c1.6-1.1,0.8-3.9-1.2-3.9C172,46.3,170.5,49.6,167.9,51.3L167.9,51.3
		L167.9,51.3z M168,52.1c-1.3,0.1,0.5,2.1,0.8,2.6c1,1.2,2.1,2.4,3.4,3.1c0.7,0.5,1.6,0.8,2.8-0.4c0.2-0.2,0.3-0.5,0.3-0.8
		c-0.2-1.6-0.7-1.9-1.2-2.2C172.1,53.7,170.2,52.4,168,52.1L168,52.1L168,52.1z M168,52.2c-0.7-1.9-4.5,4.1-5,4.8
		c-0.3,0.6-0.4,1.3,0.1,2.7c0.1,0.3,0.4,0.5,0.7,0.6c1.4,0.2,2.2-0.3,2.7-1C167.8,57.2,168.5,54.7,168,52.2L168,52.2z M137,73.8
		c0.2,1.7,2.1,3.5,4.1,4c2.1,0.5,5.8-0.3,7.1-2.1c1-1.5,1.8-3.4,2.1-5.1c0.6-3.1-1-6.6-5.8-5.8C140.7,65.4,136.7,71.2,137,73.8
		L137,73.8z M97.1,57.4c-2.4,4.5,0.7,10.2,5.9,10.2c4.2,0,7.5-3.4,7.5-7.6C110.6,52.3,100.3,51.3,97.1,57.4z"/>
	<path class="st3" d="M128.9,63.1c4.7-0.1,9.4-0.6,13.9-0.8c-2.4-15.2-28.2-12.9-30.1,1.6C117.9,63,123.5,63.7,128.9,63.1z"/>
	<g>
		<path class="st4" d="M133.3,45.9c0.2-0.1,0.4-0.2,0.6-0.3L133.3,45.9c0.4-0.2,0.8-0.3,1.2-0.3l-0.6,0.1c0.3,0,0.5,0,0.8,0
			l-0.6-0.1c0.2,0,0.5,0.1,0.7,0.2l-0.6-0.2c0.3,0.1,0.5,0.2,0.8,0.4l-0.5-0.3c0.3,0.2,0.6,0.5,0.8,0.7l-0.4-0.4
			c0.3,0.4,0.5,0.8,0.8,1c0.7,0.9,1.8,1.2,2.9,0.9c0.4-0.2,0.9-0.4,1.1-0.9s0.5-1,0.2-1.5c-0.8-1.7-2.3-3.1-4.1-3.5
			c-1.6-0.4-3.3,0-4.7,0.8c-0.5,0.3-0.9,0.6-1,1.1c-0.2,0.5-0.1,1,0.2,1.4C131,46.2,132.2,46.4,133.3,45.9L133.3,45.9L133.3,45.9z"
			/>
		<path class="st4" d="M126.8,40c1.5-1,3.4-1.8,5.2-2.1c1.7-0.3,3.3-0.3,4.9,0.3c1.5,0.6,3.1,1.5,4.4,2.7c0.8,0.7,1.4,1.3,2,2.2
			c0.3,0.4,0.6,0.9,1,1.3c0.5,0.6,1,1,1.4,1.6c1.4,2.1,5.1,0.5,3.9-2c-0.3-0.7-0.5-1.4-1-2.1c-0.4-0.6-0.9-1.1-1.3-1.6
			c-0.9-1-1.7-1.9-2.7-2.7c-1.9-1.6-4.1-2.8-6.5-3.5c-4.7-1.5-10.9-0.1-14.4,3.3c-0.8,0.8-0.9,1.9,0,2.7
			C124.6,40.8,125.9,40.7,126.8,40L126.8,40L126.8,40z"/>
		<path class="st4" d="M121.2,33c1.9-1.7,4.3-3.1,6.8-3.9c1.3-0.5,2.7-0.9,4.1-1c0.4-0.1,1.1-0.1,1.7-0.1c0.3,0,0.7,0,1,0
			c0.2,0,1,0.1,0.9,0.1c1.1,0.2,2.3,0.5,3.3,0.9c-0.5-0.2,0.2,0.1,0.4,0.1c0.2,0.1,0.5,0.2,0.7,0.3c0.6,0.2,1,0.5,1.6,0.7
			c2.3,1,4,2.1,5.8,3.7c1,1,2.1,1.9,3,3.1c0.6,0.7,1,1.3,1.4,2.1c0.6,1,1.3,1.6,2,2.4c1.4,1.5,4.3,0.1,3.8-1.9c-0.2-1-0.4-1.7-1-2.6
			c-0.5-0.8-1-1.4-1.5-2.1c-1-1.3-2.1-2.5-3.3-3.6c-2.1-1.9-4.6-3.5-7.2-4.8c-2.3-1-4.8-2.2-7.3-2.6c-3.3-0.6-6.8-0.2-10,0.9
			c-3.5,1.1-6.8,3-9.4,5.6C116,32.3,119.3,34.7,121.2,33L121.2,33L121.2,33z"/>
	</g>
	<path class="st3" d="M121.8,66.9l1.1,24.7h11.5L134,66.7C134,64.9,121.8,65.2,121.8,66.9z"/>
	<path class="st5" d="M152.3,173.1c0.4-2.6,0.7-6,0.9-8.6c0.1-1.3,0.2-2.5,0.3-3.1c0.3-1.9,1.3-3.9,3.7-3.7c2.7,0.3,4.1,1.2,4.3,2.9
		l-0.3,8.1c0,0.6,0.4,1,1,1l0,0c0.6,0,1-0.4,1-1l0.3-8.2v-0.1c-0.1-1.5-1-4.3-6.1-4.7c-3.1-0.3-5.4,1.9-5.8,5.4
		c-0.1,0.6-0.2,1.7-0.3,3.1c-0.2,2.6-0.5,6-0.9,8.5c-0.8,5.4-2.2,6-3.5,6c-2.1-0.1-3.2-1.1-3.3-3.2c-0.1-1.4,0.7-11.2,0.9-13.5
		c0.1-0.6-0.3-1-0.9-1.1c-0.6-0.1-1,0.3-1.1,0.9c-0.2,1.9-1,12.1-1,13.8c0.2,3.1,2.1,5,5.2,5.2c0.1,0,0.2,0,0.3,0
		C150.7,180.8,151.9,176.7,152.3,173.1L152.3,173.1z"/>
	<polygon class="st3" points="165.5,168.2 159.6,168.6 154.3,173.5 155.4,190.3 174.4,189 172.3,172.6 	"/>
	<path class="st4" d="M136.7,164c-0.2,0.2,11.4,0.4,11.5,0.5c0.2,0.1,1-14.4,1-14.4l-11.6-0.1C137.5,150.1,136.9,163.9,136.7,164
		L136.7,164z"/>
	
		<radialGradient id="SVGID_00000002345072707206907300000008030364344715414933_" cx="223.3718" cy="2511.5918" r="91.4159" gradientTransform="matrix(0.9982 6.026807e-02 -4.318207e-02 0.7152 5.683266e-04 -1666.4073)" gradientUnits="userSpaceOnUse">
		<stop  offset="6.160000e-02" style="stop-color:#E9504B"/>
		<stop  offset="0.2309" style="stop-color:#EA5C42"/>
		<stop  offset="0.5374" style="stop-color:#F07B2B"/>
		<stop  offset="0.9435" style="stop-color:#F8AF05"/>
		<stop  offset="1" style="stop-color:#FAB700"/>
	</radialGradient>
	<path style="fill:url(#SVGID_00000002345072707206907300000008030364344715414933_);" d="M186.3,149.8c2.1,0.6,1,3.9,2.3,4.4
		c1.2,0.4,3.6,0.4,3.7,1.7c0.1,1.4-2.4,3-2.5,4.3c-0.1,1.3,1.9,4.5,1,5.4s-3.7-0.3-6.2,0.4c-2.5,0.7-3,3.2-5.1,2.2
		c-2.1-1,0.4-3.6-1-5.3c-1.4-1.7-3.1-0.5-3.5-2.5c-0.4-2,2.4-1.3,2.3-3.4c-0.1-2.1-1.2-4.3,0.2-5.5c1.4-1.2,4,1.8,5.2,1.2
		S184.7,149.3,186.3,149.8L186.3,149.8z M51.8,180.8c3.1-3.2,9.8-3,14-2.3c5,0.8,9.4,2.4,14.5,1.6c6.2-0.9,8.5-6.1,7-11.9
		c-1.8-6.9-8.9-10-15-11.9c-1.8-0.6-3.6-1.4-5.4-2.1c-0.8-0.3-2.9-1.5-3.6-1.3c-2.2,0.5,1.9,4.5,3,5.3c5,4,12.2,4.4,14.8,11.3
		c1.6,4.2-3.6,5.8-6.6,5.3c-4-0.6-7.4-2-11.6-1.6c-4.2,0.3-10.6,0.9-11.7,7C50.2,183.2,51.3,181.3,51.8,180.8L51.8,180.8z
		 M133.7,211c0.6,0.1,1.2,0.1,1.9-0.1c3-1,3.1-5.9,0.5-7.3c-2.8-1.3-5.7,0.2-5.6,3.3c0,1.1,0.5,2.2,1.2,3c-2.4-0.6-4.6,1-4.6,3.7
		c0,2.7,2.6,4.8,5.2,3.9C134.9,216.9,135.5,212.9,133.7,211L133.7,211z M85.7,209.5c-1.6-0.9-3-2.2-4.1-3.5c-1.1-1.3-2.2-3-2.6-4.8
		c-0.3-1.2-0.2-2.8,0.5-3.9c0.6-1,1.1-1.2,2.3-0.9c1.4,0.6,2.5,1.7,3.6,2.8c1.2,1.2,2.6,2.4,4.3,3.1c1.5,0.7,3.2,0.7,4.8,1.4
		c0.2,0.1,0.5,0.2,0.7,0.4c0.3,0.2,0.2,0.1,0.1,0.1c0,0,0.4,0.4,0.2,0.2c0.3,0.3,0.3,0.6,0.1,1c-0.7,1.8-2.7,3.2-4.4,3.8
		c-1.9,0.8-3.8,0.7-5.7,0c-1.4-0.5-3.1,1.4-1.4,2.4c4.3,2.4,10.2,0.6,13.4-3c1.3-1.5,2.4-3.6,1.2-5.5c-1-1.7-3.1-2.5-5-3
		c-1-0.3-2.1-0.4-3.1-0.9c-0.9-0.4-1.5-1-2.2-1.6c-1.5-1.4-3-3-5-3.9c-2-0.9-4.4-0.9-6,0.8c-1.3,1.2-1.9,3.2-1.9,5.1
		c-0.1,5.3,4.2,10,8.8,12.1C85.7,212.5,87.4,210.3,85.7,209.5L85.7,209.5z M85.3,206.4c0.1,0,0.1,0,0.2,0c0.3,0,0.5-0.1,0.8-0.2
		c0.1,0,0.2-0.1,0.3-0.1c0.2-0.1,0.4-0.2,0.7-0.3c0.1,0,0.2-0.1,0.2-0.2c0.2-0.1,0.3-0.3,0.5-0.5c0.1-0.2,0.2-0.4,0.3-0.5v-0.1
		c0.1-0.2,0.1-0.3,0.1-0.5V204c0-0.2,0-0.3,0-0.5c0,0,0,0,0-0.1c0-0.2-0.1-0.4-0.2-0.6c-0.1-0.1-0.2-0.3-0.3-0.4
		c-0.1-0.1-0.3-0.2-0.4-0.3c-0.2-0.1-0.4-0.2-0.5-0.3l0.4,0.2c-0.2-0.1-0.4-0.2-0.6-0.3c-0.3-0.1-0.6-0.1-0.8-0.2
		c-0.4-0.1-0.7-0.1-1.1,0c-0.3,0-0.6-0.1-0.9,0c-0.3,0.1-0.6,0.3-0.8,0.5c-0.3,0.2-0.6,0.5-0.8,0.8c-0.2,0.4-0.2,0.9-0.1,1.2
		c0,0,0,0,0,0.1c0,0.1,0.1,0.3,0.2,0.5c0,0,0,0.1,0.1,0.1c0.1,0.2,0.2,0.4,0.4,0.5c0.1,0.1,0.3,0.3,0.4,0.4l0.1,0.1
		c0.2,0.1,0.4,0.2,0.5,0.3c0,0,0.1,0,0.1,0.1c0.3,0.1,0.5,0.1,0.8,0.2c0.1,0,0.1,0,0.2,0C84.9,206.4,85.1,206.4,85.3,206.4z
		 M84.9,192.5c-0.3,0.4-0.7,0.8-1,1.1c-0.2,0.2-0.3,0.4-0.4,0.6s-0.3,0.4-0.4,0.6c0,0.1,0,0.1-0.1,0.2c0,0.1,0,0.2-0.1,0.2
		c-0.1,0.1-0.1,0.2,0,0.4c0,0.1,0,0.2,0,0.2c0.1,0.5,0.4,0.8,0.8,1c0.2,0.1,0.4,0.2,0.6,0.2c0.3,0,0.6,0,0.8-0.1
		c0.1-0.1,0.3-0.1,0.4-0.2c0.1-0.1,0.2-0.2,0.3-0.3l0.1-0.1c0.1-0.1,0.2-0.2,0.2-0.3c0.1-0.2,0.3-0.4,0.4-0.6c0.3-0.4,0.6-0.8,1-1.1
		c0.2-0.3,0.4-0.7,0.3-1c-0.1-0.4-0.4-0.8-0.7-1c-0.4-0.2-0.8-0.4-1.2-0.3C85.5,192,85.1,192.1,84.9,192.5L84.9,192.5L84.9,192.5z
		 M97.6,199.9c-0.6,0.4-1,0.9-1.5,1.3c-0.2,0.2-0.4,0.4-0.5,0.7c-0.1,0.1-0.2,0.2-0.2,0.4c-0.1,0.2-0.2,0.3-0.3,0.5v0.1
		c-0.1,0.2-0.1,0.4-0.1,0.6c0,0.1,0,0.2,0,0.2c0.2,0.8,1,1.3,1.9,1.1c0.3,0,0.4-0.1,0.6-0.2c0.1,0,0.2-0.1,0.3-0.2
		c0.1,0,0.1-0.1,0.2-0.2c0.1,0,0.1-0.1,0.1-0.2c0.1-0.1,0.2-0.2,0.3-0.3c0.2-0.2,0.4-0.4,0.6-0.7c0.3-0.4,0.7-0.9,1-1.2
		c0.1-0.1,0.2-0.3,0.3-0.5c0.1-0.2,0.1-0.4,0-0.6c-0.1-0.3-0.3-0.6-0.5-0.8C99.1,199.5,98.2,199.4,97.6,199.9L97.6,199.9L97.6,199.9
		z M75.4,201.4C75.4,201.4,75.4,201.4,75.4,201.4c-0.2,0.1-0.4,0-0.5,0.1c-0.1,0-0.4,0.1-0.5,0.2c-0.2,0.2-0.4,0.3-0.5,0.6
		c-0.1,0.2-0.1,0.4-0.1,0.6c0,0.2,0,0.4,0.1,0.6s0.3,0.4,0.5,0.6c0.5,0.4,1,0.3,1.5,0.3c0.1,0,0.2,0,0.4-0.1s0.5-0.1,0.7-0.2
		c0.2-0.1,0.4-0.2,0.6-0.3l-0.4,0.2l-0.4,0.1c0.2,0,0.4-0.1,0.6-0.2c0.1,0,0.3-0.1,0.4-0.2l0.3-0.3c0.1-0.1,0.2-0.3,0.3-0.4
		c0.1-0.2,0.1-0.4,0.1-0.6c0-0.2,0-0.4-0.1-0.6l-0.2-0.3c-0.1-0.2-0.3-0.3-0.5-0.4c-0.1-0.1-0.3-0.1-0.4-0.1c-0.2,0-0.3-0.1-0.5-0.1
		c-0.1,0-0.3,0.1-0.5,0.1C76,201.2,75.7,201.3,75.4,201.4z M92.5,212.1c-0.2-0.3-0.4-0.6-0.5-0.8c-0.1-0.1-0.1-0.1-0.2-0.2
		c-0.1-0.1-0.1-0.1-0.2-0.2c-0.2-0.2-0.1-0.1-0.4-0.3c-0.1,0-0.2-0.1-0.3-0.1h-0.1l0.4,0.2c0,0,0,0-0.1,0c-0.1-0.1-0.3-0.2-0.5-0.2
		c-0.1-0.1-0.4-0.1-0.5-0.1c-0.2,0-0.3,0-0.5,0c-0.5,0.1-0.9,0.3-1.1,0.6c-0.3,0.3-0.3,0.5-0.4,0.8c0,0.2,0,0.4,0.1,0.6
		s0.2,0.4,0.3,0.5l0.3,0.3c0.1,0,0.1,0.1,0.2,0.1c0,0,0,0,0.1,0c0,0,0,0,0.1,0.1c0,0,0.1,0.1,0.1,0.1c0.1,0.1,0.1,0.1,0.1,0.2
		c0,0.1,0.1,0.1,0.1,0.2c0,0.1,0.1,0.1,0.1,0.2c0.1,0.1,0.1,0.2,0.2,0.3c0,0.1,0.1,0.2,0.1,0.2c0,0.1,0,0.1,0.1,0.2
		c0.1,0.1,0.2,0.2,0.3,0.3l0.3,0.3c0.2,0.1,0.4,0.2,0.7,0.3c0.2,0.1,0.3,0.1,0.5,0.1c0.2,0,0.5,0,0.7-0.1c0.3-0.1,0.5-0.3,0.7-0.5
		c0.2-0.2,0.2-0.4,0.3-0.6c0.1-0.2,0.1-0.4,0-0.6c0-0.1,0-0.1-0.1-0.2c-0.1-0.2-0.2-0.4-0.2-0.7c-0.1-0.2-0.2-0.4-0.3-0.6
		C92.7,212.5,92.6,212.3,92.5,212.1z M57.6,165.9c0.8,1.6,2.5,2.8,4.3,2.6c0.8-0.1,1.5-0.5,2.2-1c3.5-3.2-0.6-8.3-4.2-6.2
		c-0.6,0.4-1.1,0.8-1.5,1.1C57.3,163.3,56.9,164.5,57.6,165.9L57.6,165.9z M69.4,199.2c0-1-0.8-2.1-0.8-3.2c0.1-1.4,0.6-3,1.3-4.2
		c0.8-1.1,1.8-2.1,2.4-3.3c0.6-1.2,0.6-2.8-0.6-3.6c-0.9-0.6-2-0.8-3.1-0.6s-2,0.8-2.9,1.3c-4.2,2.9-7.9,7.7-6.5,12.5
		c0.5,1.7,1.9,3.2,3.9,3.8c1.8,0.6,4.5,0.1,5.6-1.3C69.2,200.2,69.4,199.7,69.4,199.2L69.4,199.2z M201.8,160.8
		c0.1,2.8-2.2,4.5-4.6,6.1c-2.6,1.7-5.5,4.2-5.1,7.4c0.2,1.1,1.1,2.4,2.6,2.4c0.7,0,1.2-0.4,1.7-0.8c5.2-3.7,12.3-10,11.5-15.9
		c-0.3-1.9-0.5-6.1-2.5-6.8C202.4,152.3,201.7,158.6,201.8,160.8L201.8,160.8z M155.8,202.7c-0.3,0.3-0.5,0.6-0.8,0.9
		c0,0.1-0.1,0.1-0.1,0.2c-0.2,0.3,0.1,0,0.1-0.1c0,0.1-0.3,0.3-0.4,0.3c-0.2,0.2,0.3-0.2,0.1-0.1c-0.1,0-0.1,0.1-0.2,0.1
		c-0.1,0.1-0.3,0.1-0.4,0.2c-0.5,0.2,0.3-0.1-0.2,0.1c-0.2,0-0.4,0.1-0.6,0.1c-0.2,0-0.3,0.1-0.5,0.1c-0.4,0.1,0.4,0-0.1,0
		c-0.4,0-0.8,0-1.1,0c-0.1,0-0.2,0-0.2,0h-0.1c-0.2,0-0.2,0,0,0h0.1c-0.1,0-0.2,0-0.2,0c-0.1,0-0.2,0-0.2,0
		c-0.4-0.1-0.8-0.2-1.1-0.3c-0.1,0-0.2-0.1-0.2-0.1c0.4,0.1,0.2,0.1,0.1,0c-0.2-0.1-0.4-0.2-0.5-0.2c-0.1-0.1-0.3-0.1-0.4-0.2
		c0,0-0.3-0.2-0.1-0.1c0.2,0.2-0.1-0.1-0.1-0.1c-0.1-0.1-0.2-0.2-0.4-0.3c-0.3-0.3,0.1,0.2-0.1-0.2c-0.1-0.1-0.1-0.2-0.2-0.3
		c-0.2-0.2,0.1,0.2,0,0.1c0-0.1-0.1-0.2-0.1-0.3s-0.1-0.3-0.1-0.4c0.1,0.4,0,0.1,0,0c0-0.1,0-0.3,0-0.4c0-0.3-0.1,0.3,0-0.2
		c0-0.1,0.1-0.2,0.1-0.3s0.1-0.2,0.1-0.3c0.1-0.2,0-0.1,0.1-0.3c0.6-1,1.2-2,1.5-3.1c0.7-2.8-0.8-5.6-3.3-6.9
		c-0.7-0.3-1.5-0.2-2,0.5c-0.4,0.7-0.1,1.3,0.5,1.7c1.8,1,2,3.2,1.1,5c-0.6,1-1.2,2.1-1.4,3.2c-0.2,1-0.1,2.1,0.4,3.1
		c0.9,1.5,2.6,2.5,4.2,3.1c1.7,0.6,3.6,0.8,5.3,0.4c1.8-0.4,4.7-1.9,4.1-4.2C158.2,202.3,156.5,202.1,155.8,202.7L155.8,202.7
		L155.8,202.7z M160.2,200c-1.7,0.5-3.6-0.3-4.9,1.4c-1,1.4-0.3,3.5,0.7,4.9c2.3,3.1,7.2,3.2,10.9,2.2c6.6-1.9,11.2-15.8,1.1-14.4
		C163.6,194.6,164,198.9,160.2,200L160.2,200z M164.5,202.6c1,0.8,1.3,2.2,0.5,3.1c-0.9,1-2.4,1.1-3.4,0.5c-1-0.8-1.3-2.2-0.5-3.1
		C161.8,202.1,163.4,201.9,164.5,202.6z M107.2,207.8c-0.6,1.2-2.2,6.4-2.3,8.8c-0.1,2.4,0.9,2.4,3.1,2.4c2.3,0.1,5.7-0.9,7.4-1.7
		c1.8-0.9,2.8-1.9,2-3.7c-0.7-1.8-3.5-4.4-6.8-6.4C109.3,206.2,107.8,206.5,107.2,207.8L107.2,207.8z M185,183.6
		c-0.9-1-3.5,0.2-4.5,1c-1,0.9-1.9,3.7,1.3,4.9C185,190.7,187,186.3,185,183.6L185,183.6z M51.6,166.5c0.2-3.1-4.9-2.5-4.9-2.5
		l-1.4-2.8c0,0,2.5,1,3.1-1.6c0.6-2.7-3.7-2.3-3.7-2.3l-0.8-1.5c0,0,3,0.4,2.9-2.6c0-3-3.9-0.7-3.9-0.7s-0.3-2.9-5.1-2.1
		c-4.8,0.8-4.1,5.2-4.1,5.2s-3.1-0.5-3.2,2.6c0,3.1,3.3,1.9,3.3,1.9c0,0.4,0.5,1.4,0.5,1.4s-3.6,1-2.7,3.8s3.7,0.4,3.7,0.4
		c0.2,1.6,1.7,3.5,1.7,3.5c-2.4,3-1,3.6,0.6,4.1c1.6,0.5,1.7-2.4,1.7-2.4c1,1.4,2.9,3.1,6.1,2c3.1-1,2.2-5.6,2.1-5.7
		C47.4,167.4,51.3,169.6,51.6,166.5L51.6,166.5z M44,166.1c1.1,2-1.7,4.5-3.2,2.1C39.2,165.8,42.5,163.6,44,166.1z M40.6,155.8
		c0.2,2.5-4,4-4.5,1C35.6,153.8,40.2,152.2,40.6,155.8z M111.1,151.4c-4.2,2.7-4.4,7.3-4.5,11.9c-0.1,2.5-0.4,4.6-1.4,6.8
		c-0.8,1.5-1.5,3.1-2.3,4.5c-0.6,1.1-1,2.4-1.7,3.5c-1,1.7-3.1,4.4-2.1,6.5c0.6,1.2,3.1,0.9,2.5-0.6c-0.4-0.9,0.6-2.2,1-3
		c0.6-1,1.2-2.1,1.7-3.2c1.4-3.3,3.8-6.4,4.7-9.9c0.7-2.6,0.5-5.3,0.7-8c0.2-2.5,0.8-5.1,3-6.5C113.9,152.4,112.5,150.5,111.1,151.4
		L111.1,151.4z M106.4,166.4c-0.1,1.8-0.1,3.7-0.3,5.5c-0.2,1.9-1,3.7-1.3,5.5c-1,3.7-0.4,7.4,0.1,11.2c0.2,1.3,2.6,1.3,2.4,0
		c-0.3-3.8-0.8-7.6,0.3-11.4c0.5-1.7,1-3.4,1.2-5.2c0.2-1.9,0.1-3.8,0.2-5.7C108.9,165,106.5,165,106.4,166.4L106.4,166.4
		L106.4,166.4z M106.6,162.9c-0.4,2.2,0,4.2,0.9,6.2c0.8,1.8,1.9,3.6,2.2,5.7c0.4,2.5,0.2,5.1,0.5,7.5c0.3,2.6,0.9,5,2.2,7.2
		c0.7,1.2,2.9,0.3,2.1-1c-1-2.1-1.6-4.5-1.8-6.8c-0.2-2.4-0.1-4.8-0.4-7.2c-0.6-3.7-3.7-7.1-3.1-11
		C109.3,162,106.9,161.5,106.6,162.9L106.6,162.9L106.6,162.9z M109.1,166.7c1.1,5.4,5.2,9.2,9.1,12.9c2.1,2,4.2,4,6,6.2
		c1.8,2.4,2.3,5.4,4.1,7.7c0.9,1,3.1,0.2,2.2-1.1c-1.5-2.4-2-5.2-3.8-7.5c-1.7-2.3-3.9-4.4-5.9-6.3c-3.7-3.6-8-7.2-9.3-12.5
		C111.2,164.8,108.8,165.2,109.1,166.7L109.1,166.7L109.1,166.7z M117.2,178.8c1.1,2.9,2.4,5.7,3.2,8.8c0.9,3.1,1.1,6.3,2,9.4
		c0.4,1.3,2.6,0.9,2.3-0.6c-0.7-3.1-1-6.3-1.8-9.4c-0.7-3.1-2.1-5.9-3.3-8.8C119,177,116.7,177.3,117.2,178.8L117.2,178.8
		L117.2,178.8z M107,159.1c0.1,2.7,1.6,4.9,3.4,6.8c2.2,2.1,4.7,3.9,7.2,5.7c1.1,0.9,2.4,1.8,3.6,2.6c1.2,0.8,2.5,1.4,3.6,2.2
		c1,0.7,2,1.5,3,2.3c0.9,0.7,1.9,1.5,2.4,2.6c0.5,1.2,2.9,0.9,2.4-0.6c-0.8-2.2-2.9-3.6-4.6-5c-2.2-1.7-4.7-3-6.9-4.6
		c-2.5-1.9-5-3.8-7.3-5.8c-1.9-1.6-4-3.6-4.2-6.2C109.5,157.7,107,157.7,107,159.1L107,159.1L107,159.1z M115.6,169.7
		c1.1,0.9,2.4,1.7,3.6,2.4c1.3,0.7,2.7,1,4.2,1.2c1.5,0.2,2.9,0.6,4.2,1.1c1.3,0.6,2.7,1.3,4.1,1.8c0.6,0.2,1.2,0.2,1.6-0.4
		c0.4-0.5,0.1-1.1-0.5-1.4c-2.6-1.2-5.1-2.9-7.9-3.2c-1.4-0.2-2.8-0.3-4.1-1c-1.2-0.6-2.4-1.4-3.5-2.2c-0.6-0.4-1.2-0.5-1.8,0
		C115.2,168.6,115.1,169.4,115.6,169.7L115.6,169.7L115.6,169.7z M96.9,180.8c1.2-3,4.6-4.6,7-6.5c2.8-2.3,5.3-5.4,6.1-9
		c0.3-1.4-2-1.9-2.4-0.6c-1,3.5-3.3,6.4-6.2,8.5c-2.7,2-5.5,3.7-6.8,7C94,181.5,96.4,182,96.9,180.8L96.9,180.8L96.9,180.8z
		 M114,167.3c1.5-1,2.7-2.2,3.9-3.4c0.7-0.6,1.3-1.2,2-1.7c0.1-0.1,0.2-0.1,0.3-0.2c-0.2,0.2,0,0,0.1-0.1c0.2-0.1,0.5-0.3,0.7-0.4
		c0.5-0.3,1-0.5,1.5-0.7c0.7-0.3,1-1.2,0.6-1.9s-1.4-0.8-2.2-0.5c-1.9,0.8-3.6,1.9-5.1,3.3c-0.6,0.6-1.1,1.1-1.7,1.7
		c-0.3,0.3-0.6,0.6-1,0.9c-0.2,0.1-0.3,0.2-0.5,0.4c-0.1,0.1-0.2,0.1-0.3,0.2c-0.1,0.1-0.1,0,0.1-0.1c-0.1,0-0.1,0.1-0.2,0.1
		c-0.7,0.4-1,1.1-0.6,1.9C112.3,167.5,113.2,167.8,114,167.3L114,167.3L114,167.3z M108.7,164.9c-4.8,1-9.7,0.8-14.4-0.8
		c-0.8-0.3-1.7,0.2-1.9,1c-0.3,0.9,0.4,1.4,1.1,1.7c5.2,1.7,10.8,2,16,0.8c0.8-0.2,1.3-1,1.1-1.7
		C110.5,165.1,109.5,164.8,108.7,164.9L108.7,164.9L108.7,164.9z M109.1,154.7c-2.4-1-4.9-0.8-7.4-1c-0.1,0-0.2,0-0.3,0
		c0.2,0,0,0-0.1,0c-0.2,0-0.5-0.1-0.7-0.1c-0.3-0.1-0.5-0.1-0.8-0.2c-0.3-0.1-0.1,0-0.4-0.2c-0.5-0.2-0.7-0.4-1-0.6
		c-0.3-0.3-0.5-0.5-0.7-0.8c-0.4-0.8-1.1-1.1-1.9-1c-0.7,0.2-1.4,1-1.1,1.7c1,2.2,3.1,3.3,5.4,3.7c1.2,0.2,2.5,0.2,3.7,0.2
		s2.4,0,3.5,0.5c0.8,0.3,1.7,0.2,2.2-0.5C110.2,156,109.9,155.1,109.1,154.7L109.1,154.7L109.1,154.7z M98.2,154.1
		c-2.9,1.6-5.6,3.4-8.1,5.5c-0.6,0.5-0.6,1.4,0,1.9c0.7,0.5,1.6,0.6,2.2,0c1.1-1,2.4-1.9,3.7-2.9c0.1-0.1,0.2-0.1,0.2-0.2
		c0.1-0.1,0.2-0.1,0,0c0.2-0.1,0.3-0.2,0.5-0.3c0.3-0.2,0.7-0.4,1-0.6c0.7-0.4,1.3-0.9,2.1-1.2c0.7-0.4,1-1.2,0.6-1.9
		C99.9,154,98.9,153.7,98.2,154.1L98.2,154.1L98.2,154.1z M118,161.7L118,161.7c0.7,0.6,1.7,0.6,2.3,0.1c0.2-0.2,0.4-0.4,0.5-0.7
		l-0.4,0.6l0,0h-2.2l0.1,0.1c1,0.8,3.2,0.2,2.7-1.3c-0.9-2.1-0.9-4.4-1-6.8c0-1.3,0-2.7,0.1-3.9c0.1-1,0.2-1.8,0.6-2.8
		c0.3-0.8-0.4-1.5-1.1-1.7c-0.9-0.2-1.6,0.2-1.9,1c-0.4,1-0.6,2.2-0.7,3.2c-0.2,1.4-0.2,2.8-0.2,4.2c0.1,2.5,0.2,5.2,1,7.4l2.7-1.3
		l-0.1-0.1c-0.7-0.6-1.6-0.5-2.2,0c-0.2,0.2-0.4,0.4-0.5,0.7l0.4-0.6l0,0h2.2l-0.1-0.1C118.9,158.5,116.5,160.4,118,161.7L118,161.7
		z M115.2,165.6c4.3,1.2,8.9,1.2,13.3,0.1c0.8-0.2,1.3-0.9,1.1-1.7c-0.3-0.8-1.2-1.1-1.9-1c-3.8,1-7.7,1-11.5-0.1
		c-0.8-0.2-1.7,0.2-1.9,1C113.8,164.8,114.5,165.4,115.2,165.6L115.2,165.6L115.2,165.6z M125.7,164.8c0.1-0.2,0.2-0.4,0.3-0.6
		c0-0.1,0.1-0.2,0.1-0.3c0.1-0.3-0.1,0.2,0,0c0.2-0.3,0.4-0.7,0.6-1c0.4-0.6,0.8-1.1,1.2-1.7c0.1-0.1,0.2-0.3,0.3-0.4
		c-0.3,0.3,0.1-0.1,0.2-0.2c0.3-0.3,0.5-0.5,0.8-0.8c0.6-0.6,1.1-1,1.7-1.5c0.6-0.5,0.6-1.4,0-1.9c-0.7-0.6-1.6-0.6-2.2,0
		c-1.2,1-2.5,2.1-3.5,3.3c-1,1.2-1.8,2.7-2.4,4.2c-0.3,0.8,0.4,1.5,1.1,1.7C124.6,165.9,125.4,165.6,125.7,164.8L125.7,164.8
		L125.7,164.8z M119.8,157c2.2-2,4.4-3.9,6.7-5.9c0.6-0.5,0.7-1.4,0-1.9c-0.7-0.5-1.6-0.6-2.2,0c-2.2,2-4.4,3.9-6.7,5.9
		c-0.6,0.5-0.7,1.4,0,1.9C118.2,157.5,119.1,157.6,119.8,157L119.8,157z M128.7,173.9c1-0.7,2.2-1.2,3.4-1.7
		c0.1-0.1,0.3-0.1,0.4-0.2c0.1,0,0.6-0.2,0.2-0.1c0.3-0.1,0.6-0.2,0.9-0.3c0.6-0.2,1.2-0.4,1.8-0.6c0.7-0.2,1.4-1,1.1-1.7
		c-0.3-0.8-1.1-1.1-1.9-1c-2.7,0.7-5.2,1.7-7.5,3.1c-0.7,0.4-1,1.2-0.6,1.9C127,174.1,127.9,174.3,128.7,173.9L128.7,173.9
		L128.7,173.9z M118.6,181.7c-2.7,6-4.7,12.2-7.3,18.2c-0.3,0.8,0.4,1.5,1.1,1.7c0.9,0.2,1.6-0.2,1.9-1c2.7-6,4.7-12.2,7.3-18.2
		c0.3-0.8-0.4-1.5-1.1-1.7C119.6,180.6,118.9,181,118.6,181.7L118.6,181.7z M97.5,166.6c-1.5,2-2.9,4.1-4.1,6.3
		c-0.4,0.7-0.2,1.5,0.6,1.9c0.7,0.3,1.7,0.2,2.2-0.5c1.2-2.2,2.7-4.3,4.1-6.3c0.5-0.7,0.1-1.5-0.6-1.9
		C98.8,165.7,98,165.9,97.5,166.6L97.5,166.6z M114.7,194.1c-4.6-0.1-9.2,0-13.6,1.6c-0.8,0.3-1.3,0.9-1.1,1.7
		c0.2,0.8,1.2,1.2,1.9,1c4.2-1.4,8.3-1.6,12.7-1.4c0.8,0,1.6-0.6,1.6-1.3C116.3,194.6,115.5,194.1,114.7,194.1L114.7,194.1
		L114.7,194.1z"/>
	<g>
		<path class="st1" d="M30.3,129.5c-1.8,0-3.5-0.6-4.8-1.6l-0.1,0.2l-4.1-1.9c0.3-0.7,0.8-1.8,1.4-3.4l0-0.1h0.1
			c1.7-4.4,3.7-9.4,5.9-15.1l0.4-1.1c1.6-4.1,2.7-6.9,3.3-8.5l4.1,1.7c-0.7,1.7-1.9,4.9-3.7,9.5c0,0.1-0.1,0.1-0.1,0.1
			c0.4-0.1,0.7-0.1,1.1-0.1c0.6,0,1.3,0.1,1.9,0.2c1.3,0.4,2.4,1,3.2,1.9c1.3,1.5,2,3.6,2,6c0,2.4-0.6,4.7-1.8,6.8
			c-0.9,1.5-2.1,2.8-3.6,3.7S32.3,129.5,30.3,129.5z M30.4,125c1.1,0,2.1-0.3,2.9-0.8c0.8-0.6,1.5-1.3,2-2.1
			c0.8-1.4,1.2-2.9,1.2-4.5c0-0.5-0.1-1.1-0.2-1.6c-0.3-1.4-1.1-2.1-2.4-2.1c-0.6,0-1.1,0.1-1.7,0.4c-0.9,0.5-1.6,1.1-2.1,2
			c-1,2.6-2,5-2.8,7.1c0.1,0.3,0.3,0.6,0.6,0.8C28.6,124.7,29.4,125,30.4,125z"/>
		<path class="st1" d="M50.5,129.5c-0.3,0-0.7,0-1-0.1c-2-0.3-3.4-1-4.5-2.2c-1.3-1.4-1.9-3.3-1.9-5.5c0-1.1,0.2-2.2,0.5-3.3
			c0.5-1.6,1.2-3.1,2.1-4.5c0.8-1.2,1.7-2.2,2.8-3c1-0.8,2.2-1.4,3.4-1.7c0.5-0.1,1.1-0.2,1.6-0.2c0.7,0,1.5,0.1,2.2,0.3
			c1.5,0.5,2.6,1.3,3.4,2.4c1.1,1.5,1.6,3.3,1.6,5.4c0,1-0.1,2.1-0.4,3.1c-0.4,1.6-1,3.1-1.9,4.5c-1,1.5-2.2,2.7-3.8,3.6
			C53.3,129.2,52,129.5,50.5,129.5z M50.4,125c0.8,0,1.5-0.2,2.2-0.7c0.7-0.4,1.4-1.1,1.9-2c0.6-0.9,1.1-2,1.3-3.1
			c0.2-0.7,0.3-1.4,0.3-2.1c0-1.1-0.2-2-0.6-2.6c-0.5-0.7-1.1-1.1-2-1.1c-0.6,0-1.3,0.2-2,0.7c-0.7,0.5-1.4,1.2-2.1,2.2
			c-0.7,1-1.2,2.1-1.5,3.2c-0.2,0.8-0.3,1.5-0.3,2.1c0,0.3,0,0.6,0.1,0.8c0.2,1.3,1,2.1,2.4,2.4C50.1,125,50.3,125,50.4,125z"/>
		<path class="st1" d="M78.3,129.8c-0.8,0-1.5-0.2-2.2-0.5c-0.7-0.3-1.4-0.8-1.9-1.3c-1.5,1-3.2,1.5-5,1.5c-1.3,0-2.5-0.3-3.6-1
			s-1.9-1.7-2.4-3c-0.5-1.2-0.8-2.6-0.8-4.1c0-1.6,0.3-3.2,0.9-4.8c0.5-1.3,1.2-2.6,2.1-3.7c0.9-1.1,2-2,3.3-2.6
			c1.3-0.6,2.7-1,4.3-1c2,0,3.7,0.6,5.2,1.7l0.5-1.1c2.9-6.1,4.6-9.8,5.1-11l4.1,1.8c-0.5,1.2-2.2,4.7-4.9,10.5
			c-0.1,0.3-0.3,0.8-0.6,1.2c-2.7,5.6-4.4,9.3-5.1,11c-0.1,0.2-0.2,0.5-0.2,0.7c0,0.2,0,0.4,0.1,0.6c0.2,0.3,0.6,0.5,1.1,0.5
			L78.3,129.8z M69.4,125l0.3,0c1.3-0.1,2.4-0.8,3.2-2c0.1-0.4,0.2-0.8,0.4-1.2c0.6-1.3,1.5-3.4,2.9-6.2c-0.1-0.4-0.4-0.7-0.6-0.9
			c-0.6-0.5-1.4-0.8-2.4-0.8c-1.4,0-2.5,0.4-3.5,1.3s-1.6,1.8-2.1,3.1c-0.4,1.1-0.6,2.1-0.6,3.2c0,0.9,0.1,1.6,0.4,2.3
			c0.2,0.4,0.5,0.8,0.9,1C68.5,124.9,68.9,125,69.4,125z"/>
		<path class="st1" d="M89.9,129.5c-1.3,0-2.5-0.3-3.6-1c-1-0.7-1.9-1.7-2.4-3c-0.5-1.2-0.8-2.6-0.8-4.1c0-1.6,0.3-3.2,0.9-4.8
			c0.5-1.3,1.2-2.6,2.1-3.7c0.9-1.1,2-2,3.3-2.6s2.7-1,4.3-1c1.8,0,3.4,0.7,4.8,2.2c1.2,1.2,1.9,2.8,2.3,4.8
			c0.1,0.4,0.1,0.9,0.1,1.2c0,1.1-0.3,1.9-0.9,2.6c-0.8,0.9-2.4,1.4-4.8,1.4l-0.5,0H93c-2.1,0-3.9-0.1-5.4-0.3v0.2
			c0,0.9,0.1,1.6,0.4,2.3c0.2,0.4,0.5,0.8,0.9,1c0.3,0.2,0.7,0.3,1.1,0.3l0.3,0c1.5-0.1,2.7-1,3.6-2.6l4,2.1
			c-0.8,1.5-1.8,2.6-2.9,3.4C93.4,129,91.7,129.5,89.9,129.5z M95,117c0.5,0,0.9,0,1.3,0c-0.2-1-0.5-1.8-1.1-2.3
			c-0.5-0.5-1-0.7-1.5-0.8c-1.1,0-2.1,0.3-2.9,0.8s-1.5,1.3-2,2.2l0.4,0c1,0.1,2.3,0.1,3.8,0.1H95z"/>
		<path class="st1" d="M125.2,128.3l-4.1-1.8l0.9-1.9c2.2-4.7,3.6-7.9,4.1-9.6c0-0.1-0.1-0.2-0.4-0.4c-0.5-0.5-1.3-0.7-2.1-0.7
			c-1.8,0-3.2,1.2-4.3,3.7c-0.8,1.8-1.5,3.4-2.1,4.9c-0.8,1.9-1.6,3.8-2.5,5.9l-4.1-1.8c0.9-2.1,1.8-4.3,2.8-6.6
			c1.2-2.9,2-4.7,2.3-5.2l0,0c0-0.1,0-0.1,0-0.2c0-0.3-0.4-0.6-1.2-0.9c-0.5-0.2-1.1-0.3-1.7-0.3c-1.3,0-2.2,0.4-2.5,1.1
			c-0.8,1.9-1.7,4.1-2.7,6.4l-0.1,0.2c-0.9,2.1-1.9,4.6-3.1,7.4l-4.1-1.8c1.5-3.5,2.5-6,3.2-7.5c1-2.4,1.9-4.6,2.7-6.5
			c0.6-1.4,1.6-2.3,2.9-2.9c1.2-0.6,2.4-0.8,3.8-0.8c1.1,0,2.1,0.2,3.1,0.5c1.1,0.4,2.1,0.9,2.8,1.7c1.5-1.1,3.1-1.7,4.9-1.7
			c0.8,0,1.6,0.1,2.3,0.3c1,0.3,1.9,0.8,2.7,1.4c0.8,0.7,1.4,1.5,1.7,2.3c0.2,0.5,0.3,1,0.3,1.6c0,0.4-0.1,0.8-0.2,1.2
			c-0.6,2-2,5.3-4.1,9.8L125.2,128.3z"/>
		<path class="st1" d="M133.6,129.3l-4.1-1.8c2.6-6.3,5.1-12.1,7.3-17.5l4.5-10.9l4.2,1.7c-1.9,4.5-3.4,8.2-4.6,10.9
			C138.6,117.4,136.1,123.3,133.6,129.3z"/>
		<path class="st1" d="M148.2,129.5c-1.3,0-2.5-0.3-3.6-1c-1-0.7-1.9-1.7-2.4-3c-0.5-1.2-0.8-2.6-0.8-4.1c0-1.6,0.3-3.2,0.9-4.8
			c0.5-1.3,1.2-2.6,2.1-3.7c0.9-1.1,2-2,3.3-2.6s2.7-1,4.3-1c1.8,0,3.4,0.7,4.8,2.2c1.2,1.2,1.9,2.8,2.3,4.8
			c0.1,0.4,0.1,0.9,0.1,1.2c0,1.1-0.3,1.9-0.9,2.6c-0.8,0.9-2.4,1.4-4.8,1.4l-0.5,0h-1.6c-2.1,0-3.9-0.1-5.4-0.3v0.2
			c0,0.9,0.1,1.6,0.4,2.3c0.2,0.4,0.5,0.8,0.9,1c0.3,0.2,0.7,0.3,1.1,0.3l0.3,0c1.5-0.1,2.7-1,3.6-2.6l4,2.1
			c-0.8,1.5-1.8,2.6-2.9,3.4C151.6,129,150,129.5,148.2,129.5z M153.2,117c0.5,0,0.9,0,1.3,0c-0.2-1-0.5-1.8-1.1-2.3
			c-0.5-0.5-1-0.7-1.5-0.8c-1.1,0-2.1,0.3-2.9,0.8s-1.5,1.3-2,2.2l0.4,0c1,0.1,2.3,0.1,3.8,0.1H153.2z"/>
		<path class="st1" d="M164.1,129.7c-0.3,0-0.6-0.1-1-0.2c-0.8-0.3-1.3-0.6-1.5-1.1c-0.1-0.3-0.1-0.7-0.1-1.1c0-0.3,0-0.5,0-0.8
			l0-0.7c0.1-2.5,0.2-5.1,0.2-7.8c0.1-2.9,0.1-5.5,0.2-7.9l4.5,0.2c-0.1,1.8-0.2,5.1-0.3,10.1l8.1-11.2l3.6,2.6L166.2,128
			c-0.5,0.7-0.9,1.2-1.3,1.5C164.7,129.6,164.4,129.7,164.1,129.7z"/>
		<path class="st1" d="M183.4,129.5c-1.3,0-2.5-0.3-3.6-1c-1-0.7-1.9-1.7-2.4-3c-0.5-1.2-0.8-2.6-0.8-4.1c0-1.6,0.3-3.2,0.9-4.8
			c0.5-1.3,1.2-2.6,2.1-3.7c0.9-1.1,2-2,3.3-2.6s2.7-1,4.3-1c1.8,0,3.4,0.7,4.8,2.2c1.2,1.2,1.9,2.8,2.3,4.8
			c0.1,0.4,0.1,0.9,0.1,1.2c0,1.1-0.3,1.9-0.9,2.6c-0.8,0.9-2.4,1.4-4.8,1.4l-0.5,0h-1.6c-2.1,0-3.9-0.1-5.4-0.3v0.2
			c0,0.9,0.1,1.6,0.4,2.3c0.2,0.4,0.5,0.8,0.9,1c0.3,0.2,0.7,0.3,1.1,0.3l0.3,0c1.5-0.1,2.7-1,3.6-2.6l4,2.1
			c-0.8,1.5-1.8,2.6-2.9,3.4C186.9,129,185.2,129.5,183.4,129.5z M188.5,117c0.5,0,0.9,0,1.3,0c-0.2-1-0.5-1.8-1.1-2.3
			c-0.5-0.5-1-0.7-1.5-0.8c-1.1,0-2.1,0.3-2.9,0.8s-1.5,1.3-2,2.2l0.4,0c1,0.1,2.3,0.1,3.8,0.1H188.5z"/>
		<path class="st1" d="M207.8,129.3l-4.1-1.8c0.9-2,1.9-4.3,3.1-6.9c0.2-0.5,0.4-1,0.6-1.4c1.2-2.7,1.7-4,1.7-4
			c0-0.2-0.1-0.3-0.2-0.4c-0.3-0.2-0.6-0.4-1-0.5c-0.5-0.2-1.1-0.3-1.7-0.3c-1.3,0-2.2,0.4-2.5,1.1c-0.9,2-1.7,4-2.5,5.7
			c-1.2,2.8-2.4,5.6-3.6,8.4l-4.1-1.8c1.4-3.2,2.5-5.8,3.4-8c1-2.4,1.9-4.5,2.6-6.2c0.6-1.4,1.6-2.3,2.9-2.9
			c1.2-0.6,2.4-0.8,3.7-0.8c1.1,0,2.2,0.2,3.2,0.5c0.9,0.3,1.8,0.8,2.5,1.4c0.8,0.7,1.3,1.5,1.6,2.4c0.1,0.4,0.2,0.8,0.2,1.2
			c0,0.7-0.1,1.3-0.4,2c-0.2,0.6-1,2.3-2.2,5C209.9,124.6,208.8,127.1,207.8,129.3z"/>
	</g>
</g>
</svg>
